<svg width="290" height="41" viewBox="0 0 290 41" fill="none" xmlns="http://www.w3.org/2000/svg">
<rect x="0.574707" y="0.825165" width="288.589" height="40.1226" fill="#FFC219"/>
<path d="M10.4747 10.6397H14.158L19.0329 24.6144L18.5183 24.3977L22.3099 14.675L23.7723 18.9541L18.3558 31.1684L10.4747 10.6397ZM20.1433 10.6397H23.2578L28.6743 24.3165L28.0514 24.2081L32.5472 10.6397H35.9325L28.241 31.1142L20.1433 10.6397ZM43.236 11.2897H49.4108L54.7732 30.2476H51.3879L50.2775 26.1852H42.2068L41.0964 30.2476H37.8736L43.236 11.2897ZM49.5191 23.4769L46.9734 14.2688H45.5109L42.9651 23.4769H49.5191ZM58.1676 11.2897H66.0487C67.9806 11.2897 69.5063 11.7681 70.6257 12.725C71.7632 13.682 72.3319 14.9819 72.3319 16.625V17.3291C72.3319 18.4305 71.9798 19.4235 71.2757 20.3082C70.5715 21.1929 69.6507 21.8429 68.5133 22.2582L73.1444 30.2476H69.4341L65.0467 22.6644H61.3905V30.2476H58.1676V11.2897ZM65.805 19.9832C66.8522 19.9832 67.6466 19.7666 68.1883 19.3332C68.748 18.8818 69.0278 18.2409 69.0278 17.4104V16.625C69.0278 15.7944 68.748 15.1625 68.1883 14.7292C67.6466 14.2778 66.8522 14.0521 65.805 14.0521H61.3905V19.9832H65.805ZM130.062 30.5726C127.805 30.5726 126.036 30.058 124.754 29.0289C123.472 27.9997 122.831 26.5824 122.831 24.7769V24.2081H126V24.4789C126 25.5442 126.352 26.3567 127.056 26.9164C127.76 27.4581 128.789 27.7289 130.143 27.7289C131.497 27.7289 132.499 27.5212 133.149 27.106C133.817 26.6727 134.151 26.0136 134.151 25.1289V24.9123C134.151 24.4067 134.007 23.9915 133.718 23.6665C133.447 23.3415 132.996 23.0616 132.364 22.8269C131.732 22.5741 130.829 22.3304 129.656 22.0957C128.32 21.8248 127.209 21.5269 126.325 21.2019C125.44 20.8589 124.691 20.3263 124.077 19.6041C123.463 18.8638 123.156 17.8708 123.156 16.625V16.4083C123.156 15.325 123.436 14.3771 123.995 13.5646C124.573 12.7341 125.377 12.0931 126.406 11.6417C127.435 11.1903 128.618 10.9647 129.954 10.9647C131.344 10.9647 132.581 11.1903 133.664 11.6417C134.747 12.0931 135.587 12.725 136.183 13.5375C136.778 14.35 137.076 15.2889 137.076 16.3541V17.1666H133.799V16.652C133.799 15.7493 133.456 15.0542 132.77 14.5667C132.084 14.0611 131.127 13.8083 129.899 13.8083C128.78 13.8083 127.904 14.034 127.272 14.4854C126.641 14.9187 126.325 15.5326 126.325 16.327V16.5437C126.325 17.0492 126.442 17.4555 126.677 17.7624C126.929 18.0694 127.363 18.3402 127.977 18.5749C128.609 18.8096 129.547 19.0534 130.793 19.3061C132.147 19.595 133.276 19.911 134.179 20.254C135.099 20.5971 135.867 21.1387 136.481 21.879C137.113 22.6012 137.428 23.5762 137.428 24.8039V25.1289C137.428 26.2122 137.122 27.1692 136.508 27.9997C135.912 28.8122 135.054 29.4441 133.935 29.8955C132.815 30.3469 131.524 30.5726 130.062 30.5726ZM144.823 11.2897H150.998L156.36 30.2476H152.975L151.864 26.1852H143.794L142.683 30.2476H139.46L144.823 11.2897ZM151.106 23.4769L148.56 14.2688H147.098L144.552 23.4769H151.106ZM159.754 11.2897H163.14L172.023 25.0477V17.4645V11.2897H175.192V30.2476H171.806L162.923 16.4895V24.0727V30.2476H159.754V11.2897ZM179.389 18.8187C179.389 17.284 179.705 15.9208 180.337 14.7292C180.969 13.5375 181.872 12.6167 183.046 11.9667C184.219 11.2987 185.591 10.9647 187.162 10.9647C189.527 10.9647 191.396 11.5695 192.768 12.7792C194.14 13.9708 194.827 15.6409 194.827 17.7895V18.1958H191.577V17.7895C191.577 16.5798 191.179 15.6319 190.385 14.9458C189.609 14.2417 188.543 13.8896 187.189 13.8896C185.799 13.8896 184.689 14.3139 183.858 15.1625C183.046 15.993 182.639 17.1215 182.639 18.5478V22.9894C182.639 24.3616 183.055 25.481 183.885 26.3477C184.716 27.2143 185.817 27.6476 187.189 27.6476C188.525 27.6476 189.591 27.3046 190.385 26.6185C191.179 25.9324 191.577 24.9755 191.577 23.7477V23.3415H194.827V23.7748C194.827 25.1289 194.511 26.3206 193.879 27.3497C193.247 28.3789 192.353 29.1733 191.197 29.733C190.06 30.2927 188.724 30.5726 187.189 30.5726C185.6 30.5726 184.219 30.2566 183.046 29.6247C181.872 28.9927 180.969 28.09 180.337 26.9164C179.705 25.7428 179.389 24.3435 179.389 22.7186V18.8187ZM211.903 14.2688H206.081V30.2476H202.831V14.2688H197.008V11.2897H211.903V14.2688ZM218.413 11.2897V30.2476H215.163V11.2897H218.413ZM230.73 30.5726C228.202 30.5726 226.216 29.8774 224.772 28.4872C223.328 27.0969 222.605 25.1741 222.605 22.7186V18.8187C222.605 17.2298 222.939 15.8486 223.607 14.675C224.275 13.4834 225.214 12.5716 226.424 11.9396C227.652 11.2897 229.087 10.9647 230.73 10.9647C233.258 10.9647 235.244 11.6598 236.688 13.05C238.133 14.4403 238.855 16.3632 238.855 18.8187V22.7186C238.855 24.3074 238.521 25.6977 237.853 26.8893C237.185 28.0629 236.237 28.9747 235.009 29.6247C233.8 30.2566 232.373 30.5726 230.73 30.5726ZM225.855 22.9894C225.855 24.4158 226.289 25.5442 227.155 26.3747C228.04 27.1872 229.232 27.5935 230.73 27.5935C232.283 27.5935 233.484 27.1963 234.332 26.4018C235.181 25.5893 235.605 24.4519 235.605 22.9894V18.5478C235.605 17.1215 235.163 16.002 234.278 15.1896C233.411 14.359 232.229 13.9438 230.73 13.9438C229.177 13.9438 227.977 14.35 227.128 15.1625C226.28 15.9569 225.855 17.0854 225.855 18.5478V22.9894ZM243.066 11.2897H246.451L255.334 25.0477V17.4645V11.2897H258.503V30.2476H255.117L246.234 16.4895V24.0727V30.2476H243.066V11.2897ZM269.39 30.5726C267.133 30.5726 265.364 30.058 264.082 29.0289C262.8 27.9997 262.159 26.5824 262.159 24.7769V24.2081H265.328V24.4789C265.328 25.5442 265.68 26.3567 266.384 26.9164C267.088 27.4581 268.117 27.7289 269.471 27.7289C270.825 27.7289 271.827 27.5212 272.477 27.106C273.145 26.6727 273.479 26.0136 273.479 25.1289V24.9123C273.479 24.4067 273.335 23.9915 273.046 23.6665C272.775 23.3415 272.324 23.0616 271.692 22.8269C271.06 22.5741 270.157 22.3304 268.984 22.0957C267.648 21.8248 266.537 21.5269 265.653 21.2019C264.768 20.8589 264.019 20.3263 263.405 19.6041C262.791 18.8638 262.484 17.8708 262.484 16.625V16.4083C262.484 15.325 262.764 14.3771 263.323 13.5646C263.901 12.7341 264.705 12.0931 265.734 11.6417C266.763 11.1903 267.946 10.9647 269.282 10.9647C270.672 10.9647 271.909 11.1903 272.992 11.6417C274.075 12.0931 274.915 12.725 275.511 13.5375C276.107 14.35 276.404 15.2889 276.404 16.3541V17.1666H273.127V16.652C273.127 15.7493 272.784 15.0542 272.098 14.5667C271.412 14.0611 270.455 13.8083 269.227 13.8083C268.108 13.8083 267.232 14.034 266.6 14.4854C265.969 14.9187 265.653 15.5326 265.653 16.327V16.5437C265.653 17.0492 265.77 17.4555 266.005 17.7624C266.257 18.0694 266.691 18.3402 267.305 18.5749C267.937 18.8096 268.875 19.0534 270.121 19.3061C271.475 19.595 272.604 19.911 273.507 20.254C274.427 20.5971 275.195 21.1387 275.809 21.879C276.441 22.6012 276.756 23.5762 276.756 24.8039V25.1289C276.756 26.2122 276.45 27.1692 275.836 27.9997C275.24 28.8122 274.382 29.4441 273.263 29.8955C272.143 30.3469 270.852 30.5726 269.39 30.5726Z" fill="#2A2F32"/>
<path d="M81.7487 12.2548L79.8989 17.8439L98.0548 24.0283L98.4549 23.2764C97.5227 22.9906 95.6124 22.3982 95.4291 22.3155C95.1999 22.2123 95.3524 20.772 95.3497 19.5147C95.3475 18.5088 96.0985 18.2116 96.4743 18.1887L97.6306 17.5723L102.598 19.2031C106.625 15.762 114.882 8.83804 115.141 8.64499C115.4 8.45193 115.565 8.53349 115.616 8.5984C115.582 8.42003 115.519 8.01266 115.532 7.81013C115.545 7.60761 115.84 7.5564 115.985 7.55611C116.076 7.86854 116.312 8.49661 116.523 8.50947C116.786 8.52555 117.392 8.88537 117.366 9.05556C117.346 9.19171 110.839 16.4866 107.589 20.1171C109.068 20.489 112.353 21.3435 113.657 21.7857C114.375 22.0293 116.069 22.555 117.464 24.3468C117.767 24.7363 118.021 26.3044 117.684 26.4212C117.415 26.5147 115.884 26.458 115.153 26.4179L115.369 28.4508L115.373 28.4522C115.705 28.5596 116.235 28.731 116.415 29.4479C116.597 30.1679 115.919 30.4674 115.558 30.4021C114.213 30.1593 114.634 28.9281 115.067 28.4805L114.496 26.3985C112.838 26.3935 108.334 25.4936 105.43 24.8561C103.107 24.3462 101.309 25.9031 100.7 26.7453L100.082 28.7342C99.9585 28.8022 99.7831 29.0402 100.071 29.4479C100.358 29.8557 100.258 30.254 100.172 30.4021C99.4269 30.9447 98.8938 30.5554 98.7205 30.293C98.0929 29.3149 98.7851 28.8474 99.2096 28.7359L99.5656 27.5691L90.537 35.4132L89.8152 35.1906L89.155 35.5487L89.0139 34.2211L97.5375 24.4982L79.9694 18.5077C79.5978 18.4323 78.6919 18.2305 78.0418 18.026C77.3917 17.8214 77.0012 17.5411 76.8872 17.4265C77.4371 15.3465 78.7155 11.0599 79.4297 10.5538C80.144 10.0478 81.8538 10.917 82.6195 11.4148L103.481 18.4239L103.096 18.7243L82.6724 11.9127L82.5129 12.0541L81.895 11.9889L81.7487 12.2548Z" fill="#2A2F32"/>
<rect x="6.65625" y="6.75333" width="31.231" height="24.6022" fill="#FFC219"/>
<path d="M13.1715 11.2836H16.8547L21.7296 25.2583L21.2151 25.0416L25.0067 15.3189L26.4691 19.598L21.0526 31.8123L13.1715 11.2836ZM22.84 11.2836H25.9546L31.3711 24.9604L30.7482 24.8521L35.2439 11.2836H38.6293L30.9378 31.7582L22.84 11.2836Z" fill="#2A2F32"/>
<rect x="10.5542" y="30.2476" width="31.231" height="2.51625" fill="#FFC219"/>
</svg>
